<svg xmlns="http://www.w3.org/2000/svg" viewBox="0 0 24 24">
  <path d="M12.182 1.971c-5.438 0-9.846 4.374-9.846 9.77 0 1.846.516 3.572 1.413 5.045l-1.777 5.242 5.452-1.732a9.866 9.866 0 0 0 4.759 1.215c5.438 0 9.847-4.375 9.847-9.77-.001-5.396-4.41-9.77-9.848-9.77zm4.896 13.481c-.232.574-1.279 1.098-1.742 1.123-.462.024-.475.358-2.992-.736-2.517-1.094-4.032-3.754-4.151-3.925-.119-.171-.975-1.39-.929-2.617.046-1.227.718-1.806.958-2.047a.966.966 0 0 1 .682-.287c.198-.003.327-.006.473 0 .147.006.367-.031.557.476.191.507.647 1.753.705 1.88.058.127.094.274.005.437-.09.164-.136.266-.267.407-.131.141-.276.315-.394.423-.131.119-.267.249-.13.505.137.255.611 1.09 1.333 1.779.928.885 1.728 1.179 1.974 1.313.247.134.394.12.547-.042.152-.161.655-.705.833-.948.177-.243.343-.196.57-.104.227.092 1.44.741 1.687.875.247.134.412.203.471.309.06.106.042.605-.19 1.179z"/>
</svg>
